<svg width="16" height="16" viewBox="0 0 16 16" fill="none" xmlns="http://www.w3.org/2000/svg">
<g clip-path="url(#clip0_1036_192)">
<path d="M12.9072 5.86049H7.32576C6.64075 5.86049 6.08545 6.41579 6.08545 7.1008V12.6822C6.08545 13.3672 6.64075 13.9225 7.32576 13.9225H12.9072C13.5922 13.9225 14.1475 13.3672 14.1475 12.6822V7.1008C14.1475 6.41579 13.5922 5.86049 12.9072 5.86049Z" stroke="black" stroke-width="1.24031" stroke-linecap="round" stroke-linejoin="round"/>
<path d="M3.60461 9.58141H2.98445C2.6555 9.58141 2.34002 9.45073 2.10742 9.21813C1.87482 8.98553 1.74414 8.67005 1.74414 8.3411V2.7597C1.74414 2.43075 1.87482 2.11528 2.10742 1.88267C2.34002 1.65007 2.6555 1.51939 2.98445 1.51939H8.56585C8.8948 1.51939 9.21027 1.65007 9.44288 1.88267C9.67548 2.11528 9.80616 2.43075 9.80616 2.7597V3.37986" stroke="black" stroke-width="1.24031" stroke-linecap="round" stroke-linejoin="round"/>
</g>
<defs>
<clipPath id="clip0_1036_192">
<rect width="14.8837" height="14.8837" fill="white" transform="translate(0.503906 0.279083)"/>
</clipPath>
</defs>
</svg>
