<svg width="98" height="22" viewBox="0 0 98 22" fill="none" xmlns="http://www.w3.org/2000/svg">
<g clip-path="url(#clip0_355_1013)">
<path d="M17.9692 5.96851C17.3146 5.09787 16.3186 4.66257 14.9798 4.66257C13.9768 4.66257 13.1543 4.94621 12.5167 5.51493C11.8776 6.08225 11.3979 6.79842 11.0791 7.66204C10.8351 6.79842 10.3977 6.08225 9.76712 5.51493C9.1351 4.94761 8.31828 4.66257 7.31523 4.66257C6.34041 4.66257 5.54616 4.91672 4.92966 5.42365C4.31317 5.93059 3.83775 6.60885 3.5034 7.45702V4.93497H0.032959V17.27H3.52456V10.2515C3.52456 9.16038 3.69949 8.36276 4.04936 7.85582C4.39923 7.34889 4.93248 7.09472 5.64773 7.09472C6.36298 7.09472 6.8906 7.34889 7.23341 7.85582C7.57622 8.36276 7.74692 9.14634 7.74692 10.2065V17.2714H11.2385V10.2529C11.2385 9.16178 11.4135 8.36417 11.7633 7.85723C12.1132 7.35029 12.6465 7.09612 13.3617 7.09612C14.077 7.09612 14.6046 7.35029 14.9474 7.85723C15.2902 8.36417 15.4609 9.14774 15.4609 10.208V17.2728H18.9525V9.45527C18.9497 8.00187 18.6238 6.84055 17.9692 5.96851Z" fill="white"/>
<path d="M32.5252 15.9219C32.016 14.9375 31.2894 14.1764 30.3456 13.6386C29.4033 13.1007 28.3001 12.8325 27.0374 12.8325C25.8059 12.8325 24.7097 13.1049 23.7504 13.6498C22.7925 14.1946 22.0504 14.9515 21.5271 15.9219C21.2985 16.3446 21.1179 16.7939 20.991 17.27H24.4741C24.642 16.6844 24.9002 16.2238 25.2472 15.8882C25.7254 15.4262 26.3222 15.1945 27.0374 15.1945C27.7668 15.1945 28.3762 15.4444 28.8629 15.9443C29.2043 16.2954 29.4498 16.7378 29.5965 17.27H33.0388C32.9132 16.7939 32.7425 16.3446 32.5252 15.9219Z" fill="white"/>
<path d="M33.29 4.84376C33.29 3.55747 33.0347 2.42142 32.5254 1.43704C32.2432 0.892186 31.8934 0.416146 31.4786 0.00750732H22.6149C22.1832 0.41755 21.822 0.89359 21.5272 1.43704C21.0024 2.40597 20.74 3.51955 20.74 4.77635C20.74 6.03316 20.9982 7.14954 21.5159 8.1269C22.0322 9.10286 22.7658 9.86397 23.7167 10.4102C24.6675 10.9551 25.775 11.2261 27.0376 11.2261C28.5428 11.2261 29.8139 10.8947 30.848 10.2277C31.8821 9.56065 32.6044 8.58469 33.0163 7.29839H29.5007C29.2736 7.8278 28.9689 8.22239 28.588 8.47937C28.2071 8.73635 27.6978 8.86554 27.0601 8.86554C26.3153 8.86554 25.6974 8.60856 25.2107 8.0932C24.7239 7.57924 24.4206 6.82235 24.2979 5.82252H33.2195C33.2674 5.47146 33.29 5.14707 33.29 4.84376ZM24.3219 3.5027C24.4601 2.56466 24.7677 1.86393 25.2473 1.40193C25.7256 0.93993 26.3223 0.709637 27.0376 0.709637C27.7669 0.709637 28.3764 0.95819 28.8631 1.45811C29.3498 1.95802 29.639 2.63908 29.7307 3.5027H24.3219Z" fill="white"/>
<path d="M64.4153 0.006073V17.2686H67.9069V0.006073H64.4153Z" fill="white"/>
<path d="M81.646 12.6935C81.2186 11.9675 80.5809 11.396 79.7288 10.9789C78.8753 10.5619 77.8271 10.354 76.58 10.354C75.5304 10.354 74.5909 10.5141 73.7614 10.8315C72.9319 11.1488 72.2632 11.6108 71.7539 12.2161C71.2446 12.8227 70.9371 13.5431 70.8298 14.3744H74.344C74.4188 13.9054 74.6516 13.5108 75.0395 13.1934C75.4289 12.8761 75.9424 12.716 76.58 12.716C77.2953 12.716 77.8413 12.9252 78.2236 13.3409C78.6031 13.7579 78.7935 14.2916 78.7935 14.9431V15.1482L75.529 15.4655C74.0238 15.6017 72.7922 15.943 71.8329 16.4864C71.4661 16.6942 71.1698 16.9554 70.9455 17.27H82.2837V15.1917C82.2837 14.2522 82.0707 13.4209 81.646 12.6935Z" fill="white"/>
<path d="M82.281 0.006073H78.7922V0.0959452L75.5278 0.41471C74.0225 0.55092 72.7909 0.890755 71.8316 1.43561C70.8737 1.98046 70.394 2.88901 70.394 4.16126C70.394 4.93361 70.5845 5.62591 70.964 6.23957C71.3449 6.85323 71.8655 7.33067 72.5285 7.6705C73.1901 8.01033 73.9167 8.18165 74.7067 8.18165C75.7873 8.18165 76.6465 7.95416 77.2856 7.50059C77.9246 7.04561 78.4424 6.40948 78.8374 5.59221V7.90923H82.2824V0.14088C82.2838 0.0973485 82.2838 0.0524133 82.281 0.006073ZM78.7936 2.66573C78.7936 3.3173 78.6907 3.90288 78.4847 4.42526C78.2801 4.94765 77.9726 5.35629 77.5606 5.65118C77.1501 5.94608 76.6549 6.09493 76.0779 6.09493C75.6815 6.09493 75.3218 6.01489 74.9931 5.85621C74.6672 5.69612 74.4119 5.47284 74.2299 5.18497C74.0465 4.8985 73.9562 4.55726 73.9562 4.16407C73.9562 3.72454 74.086 3.38471 74.3441 3.14177C74.6023 2.90024 74.9282 2.72612 75.3246 2.61939C75.721 2.51548 76.2148 2.42981 76.8087 2.36943L78.7936 2.16582V2.66573Z" fill="white"/>
<path d="M47.6569 17.27C47.6202 18.3316 47.3296 19.2121 46.7808 19.9044C46.1953 20.6458 45.442 21.1794 44.5222 21.5066C43.601 21.831 42.6163 21.9939 41.5681 21.9939C40.5481 21.9939 39.6057 21.8465 38.7381 21.5516C37.8705 21.2567 37.1482 20.8017 36.5698 20.188C35.9928 19.5744 35.65 18.8133 35.5442 17.9047H39.0584C39.1811 18.465 39.4689 18.8919 39.926 19.1882C40.3831 19.4831 40.929 19.6305 41.5695 19.6305C42.344 19.6305 42.976 19.4185 43.4627 18.9944C43.9184 18.597 44.161 18.0227 44.1907 17.2686H47.6569V17.27Z" fill="white"/>
<path d="M55.759 17.27C55.2525 17.4525 54.6586 17.5424 53.9772 17.5424C53.4016 17.5424 52.8585 17.4525 52.3506 17.27H55.759Z" fill="white"/>
<path d="M94.467 17.27C93.9676 17.4525 93.4301 17.5424 92.8545 17.5424C92.3015 17.5424 91.781 17.4525 91.2957 17.27H94.467Z" fill="white"/>
<path d="M44.1909 4.93502V7.66068C43.9017 6.78162 43.4037 6.06264 42.6969 5.50234C41.9887 4.94344 41.1169 4.66119 40.0842 4.66119C39.0798 4.66119 38.1896 4.92238 37.4137 5.44476C36.6392 5.96715 36.0368 6.70157 35.6107 7.64804C35.1847 8.59451 34.9717 9.6814 34.9717 10.9073C34.9717 12.1346 35.1847 13.2215 35.6107 14.168C36.0368 15.1145 36.6378 15.8489 37.4137 16.3713C38.1896 16.8937 39.0798 17.1534 40.0842 17.1534C41.0111 17.1534 41.8406 16.9077 42.57 16.4162C43.3007 15.9247 43.8396 15.276 44.1909 14.4741V17.1085C44.1909 17.1619 44.1895 17.2152 44.1881 17.2686C44.1585 18.0227 43.9158 18.5984 43.4602 18.9944C42.9734 19.4185 42.3414 19.6306 41.5669 19.6306C40.9264 19.6306 40.3805 19.4831 39.9234 19.1882C39.4663 18.8919 39.1785 18.465 39.0558 17.9047H35.5416C35.6474 18.8133 35.9902 19.5744 36.5672 20.188C37.1456 20.8017 37.8679 21.2553 38.7356 21.5516C39.6032 21.8465 40.5455 21.9939 41.5655 21.9939C42.6137 21.9939 43.5984 21.831 44.5196 21.5066C45.4408 21.1808 46.1928 20.6458 46.7782 19.9044C47.3256 19.2121 47.6176 18.3316 47.6543 17.27C47.6557 17.1956 47.6571 17.1183 47.6571 17.0425V4.93502H44.1909ZM43.5758 13.772C43.0736 14.4531 42.3584 14.7929 41.4301 14.7929C40.4863 14.7929 39.7682 14.4531 39.2745 13.772C38.7793 13.0895 38.5324 12.136 38.5324 10.9087C38.5324 9.68281 38.7793 8.72932 39.2745 8.04685C39.7682 7.36579 40.4863 7.02596 41.4301 7.02596C42.3584 7.02596 43.0736 7.36579 43.5758 8.04685C44.0766 8.72932 44.3278 9.68281 44.3278 10.9087C44.3278 12.136 44.0766 13.0895 43.5758 13.772Z" fill="white"/>
<path d="M60.9138 7.00344C60.4863 6.27604 59.8487 5.70591 58.9966 5.28885C58.1431 4.87178 57.0949 4.66257 55.8478 4.66257C54.7982 4.66257 53.8587 4.82263 53.0291 5.14C52.1996 5.45736 51.5309 5.91936 51.0216 6.526C50.5124 7.13263 50.2048 7.85161 50.0976 8.68434H53.6118C53.6865 8.21531 53.9193 7.82072 54.3073 7.50195C54.6966 7.18459 55.2101 7.02591 55.8478 7.02591C56.5631 7.02591 57.109 7.23374 57.4913 7.6508C57.8708 8.06787 58.0613 8.60148 58.0613 9.25306V9.45527L54.7968 9.77263C53.2915 9.91025 52.06 10.2501 51.1006 10.7949C50.1427 11.3398 49.6631 12.2483 49.6631 13.5206C49.6631 14.2915 49.8535 14.9852 50.233 15.5989C50.6139 16.2125 51.1345 16.69 51.7975 17.0298C51.9767 17.1211 52.1615 17.2025 52.3492 17.2685C52.857 17.4511 53.3988 17.541 53.9757 17.541C54.6586 17.541 55.2511 17.4511 55.7575 17.2685C56.0524 17.1646 56.3176 17.027 56.5532 16.8585C57.1937 16.4049 57.71 15.7688 58.105 14.9515V17.2685H61.5501V9.50021C61.5529 8.56217 61.3399 7.72944 60.9138 7.00344ZM58.0613 12.0222C58.0613 12.6738 57.9583 13.2608 57.7523 13.7832C57.5478 14.3042 57.2402 14.7142 56.8283 15.0091C56.4177 15.304 55.9226 15.4514 55.3456 15.4514C54.9492 15.4514 54.5894 15.3728 54.2607 15.2141C53.9348 15.054 53.6795 14.8308 53.4975 14.5429C53.3141 14.2564 53.2238 13.9152 53.2238 13.522C53.2238 13.0825 53.3536 12.7426 53.6118 12.4997C53.8699 12.2582 54.1972 12.0826 54.5922 11.9773C54.9887 11.872 55.4838 11.7877 56.0763 11.7274L58.0613 11.5237V12.0222Z" fill="white"/>
<path d="M97.328 7.80953C96.902 6.83216 96.301 6.06404 95.5237 5.50233C94.7492 4.94344 93.859 4.66118 92.8545 4.66118C92.1548 4.66118 91.5298 4.7988 90.9839 5.07123C90.4365 5.34365 89.9752 5.71157 89.6028 6.17357C89.2289 6.63557 88.9439 7.14672 88.7464 7.70561V0.006073H85.2788V17.2686H88.7464V14.7929C89.0794 15.6102 89.6169 16.273 90.3547 16.7799C90.6524 16.9835 90.9669 17.1478 91.2942 17.2686C91.7795 17.4511 92.3001 17.541 92.8531 17.541C93.4273 17.541 93.9662 17.4511 94.4656 17.2686C94.8395 17.1324 95.1907 16.9484 95.5223 16.7125C96.2982 16.1606 96.9006 15.3939 97.3266 14.418C97.7526 13.4406 97.9657 12.3382 97.9657 11.1123C97.9657 9.88642 97.7541 8.78548 97.328 7.80953ZM89.3643 14.1006C88.8621 13.3816 88.611 12.386 88.611 11.1123C88.611 9.84148 88.8621 8.84025 89.3643 8.11425C89.8666 7.38684 90.5804 7.02314 91.5087 7.02314C92.4369 7.02314 93.1522 7.38684 93.6544 8.11425C94.1566 8.84025 94.4078 9.84008 94.4078 11.1123C94.4078 12.3846 94.1566 13.3816 93.6544 14.1006C93.1522 14.8196 92.4369 15.1791 91.5087 15.1791C90.5804 15.1791 89.8666 14.8196 89.3643 14.1006Z" fill="white"/>
</g>
<defs>
<clipPath id="clip0_355_1013">
<rect width="98" height="22" fill="white"/>
</clipPath>
</defs>
</svg>
