<svg width="16" height="17" viewBox="0 0 16 17" fill="none" xmlns="http://www.w3.org/2000/svg">
<g clip-path="url(#clip0_1036_169)">
<path d="M15.2417 2.94057C14.6149 3.38275 13.9208 3.72094 13.1862 3.94212C12.792 3.48881 12.268 3.16752 11.6852 3.0217C11.1025 2.87587 10.4889 2.91255 9.92766 3.12678C9.36639 3.341 8.88445 3.72244 8.54702 4.21949C8.2096 4.71655 8.03297 5.30524 8.04102 5.90595V6.56055C6.89064 6.59038 5.75073 6.33525 4.72282 5.81787C3.69491 5.30049 2.81091 4.53692 2.14955 3.59518C2.14955 3.59518 -0.468885 9.48665 5.42259 12.1051C4.07444 13.0202 2.46845 13.4791 0.840332 13.4143C6.73181 16.6873 13.9325 13.4143 13.9325 5.88631C13.9319 5.70397 13.9144 5.52208 13.8801 5.34298C14.5482 4.68412 15.0197 3.85225 15.2417 2.94057V2.94057Z" stroke="black" stroke-width="1.24031" stroke-linecap="round" stroke-linejoin="round"/>
</g>
<defs>
<clipPath id="clip0_1036_169">
<rect width="15.7106" height="15.7106" fill="white" transform="translate(0.186035 0.976761)"/>
</clipPath>
</defs>
</svg>
